<mxfile host="app.diagrams.net" modified="2020-10-20T01:02:50.791Z" agent="5.0 (Windows NT 10.0; Win64; x64) AppleWebKit/537.36 (KHTML, like Gecko) Chrome/86.0.4240.75 Safari/537.36" etag="GS8fTen6gjBVBuFlihBg" version="13.8.0" type="github">
  <diagram id="ygesi-L04HcfqPGvO-NY" name="Page-1">
    <mxGraphModel dx="560" dy="653" grid="1" gridSize="10" guides="1" tooltips="1" connect="1" arrows="1" fold="1" page="1" pageScale="1" pageWidth="827" pageHeight="1169" math="0" shadow="0">
      <root>
        <mxCell id="0" />
        <mxCell id="1" parent="0" />
        <mxCell id="IYN9SZwqf2Xsz6iqshpF-5" style="edgeStyle=orthogonalEdgeStyle;rounded=0;orthogonalLoop=1;jettySize=auto;html=1;entryX=0.5;entryY=0;entryDx=0;entryDy=0;fontSize=17;" edge="1" parent="1" source="IYN9SZwqf2Xsz6iqshpF-2">
          <mxGeometry relative="1" as="geometry">
            <mxPoint x="350" y="220" as="targetPoint" />
          </mxGeometry>
        </mxCell>
        <mxCell id="IYN9SZwqf2Xsz6iqshpF-2" value="START" style="rounded=1;whiteSpace=wrap;html=1;fontSize=17;" vertex="1" parent="1">
          <mxGeometry x="290" y="40" width="120" height="60" as="geometry" />
        </mxCell>
        <mxCell id="IYN9SZwqf2Xsz6iqshpF-10" value="&lt;font style=&quot;font-size: 14px&quot;&gt;小さい場合&lt;br&gt;(false)&lt;/font&gt;" style="edgeStyle=orthogonalEdgeStyle;rounded=0;orthogonalLoop=1;jettySize=auto;html=1;entryX=0;entryY=0.5;entryDx=0;entryDy=0;fontSize=17;exitX=1;exitY=0.5;exitDx=0;exitDy=0;" edge="1" parent="1" source="IYN9SZwqf2Xsz6iqshpF-6">
          <mxGeometry relative="1" as="geometry">
            <mxPoint x="510" y="235" as="sourcePoint" />
            <mxPoint x="580" y="235" as="targetPoint" />
          </mxGeometry>
        </mxCell>
        <mxCell id="IYN9SZwqf2Xsz6iqshpF-16" value="&lt;font style=&quot;font-size: 14px&quot;&gt;大きい場合&lt;br&gt;(True)&lt;/font&gt;" style="edgeStyle=orthogonalEdgeStyle;rounded=0;orthogonalLoop=1;jettySize=auto;html=1;fontSize=17;" edge="1" parent="1" source="IYN9SZwqf2Xsz6iqshpF-6" target="IYN9SZwqf2Xsz6iqshpF-15">
          <mxGeometry relative="1" as="geometry" />
        </mxCell>
        <mxCell id="IYN9SZwqf2Xsz6iqshpF-6" value="&lt;font style=&quot;font-size: 12px&quot;&gt;隣との数値を比較&lt;/font&gt;" style="rhombus;whiteSpace=wrap;html=1;fontSize=17;" vertex="1" parent="1">
          <mxGeometry x="270" y="200" width="160" height="70" as="geometry" />
        </mxCell>
        <mxCell id="IYN9SZwqf2Xsz6iqshpF-11" value="&lt;div style=&quot;font-size: 13px&quot;&gt;&lt;font style=&quot;font-size: 13px&quot;&gt;配列に格納されて&lt;/font&gt;&lt;/div&gt;&lt;div style=&quot;font-size: 13px&quot;&gt;&lt;font style=&quot;font-size: 13px&quot;&gt;いる個数分ループ&lt;br&gt;&lt;/font&gt;&lt;/div&gt;" style="rounded=0;whiteSpace=wrap;html=1;fontSize=14;" vertex="1" parent="1">
          <mxGeometry x="600" y="380" width="120" height="60" as="geometry" />
        </mxCell>
        <mxCell id="IYN9SZwqf2Xsz6iqshpF-13" style="edgeStyle=orthogonalEdgeStyle;jumpStyle=arc;orthogonalLoop=1;jettySize=auto;html=1;strokeColor=#000000;verticalAlign=bottom;horizontal=0;fontStyle=0;align=right;labelBackgroundColor=#ffffff;rounded=0;endArrow=none;endFill=0;" edge="1" parent="1">
          <mxGeometry relative="1" as="geometry">
            <mxPoint x="780" y="170" as="targetPoint" />
            <mxPoint x="720" y="410" as="sourcePoint" />
          </mxGeometry>
        </mxCell>
        <mxCell id="IYN9SZwqf2Xsz6iqshpF-14" style="edgeStyle=orthogonalEdgeStyle;rounded=0;jumpStyle=arc;orthogonalLoop=1;jettySize=auto;html=1;strokeColor=#000000;" edge="1" parent="1">
          <mxGeometry relative="1" as="geometry">
            <mxPoint x="350" y="170" as="targetPoint" />
            <mxPoint x="780" y="170" as="sourcePoint" />
          </mxGeometry>
        </mxCell>
        <mxCell id="IYN9SZwqf2Xsz6iqshpF-18" style="edgeStyle=orthogonalEdgeStyle;rounded=0;orthogonalLoop=1;jettySize=auto;html=1;entryX=0.5;entryY=0;entryDx=0;entryDy=0;fontSize=17;" edge="1" parent="1" source="IYN9SZwqf2Xsz6iqshpF-15" target="IYN9SZwqf2Xsz6iqshpF-17">
          <mxGeometry relative="1" as="geometry" />
        </mxCell>
        <mxCell id="IYN9SZwqf2Xsz6iqshpF-15" value="&lt;font style=&quot;font-size: 13px&quot;&gt;一時的な変数に格納&lt;/font&gt;" style="rounded=0;whiteSpace=wrap;html=1;fontSize=14;" vertex="1" parent="1">
          <mxGeometry x="290" y="370" width="120" height="60" as="geometry" />
        </mxCell>
        <mxCell id="IYN9SZwqf2Xsz6iqshpF-19" style="edgeStyle=orthogonalEdgeStyle;rounded=0;orthogonalLoop=1;jettySize=auto;html=1;fontSize=17;" edge="1" parent="1" source="IYN9SZwqf2Xsz6iqshpF-17" target="IYN9SZwqf2Xsz6iqshpF-11">
          <mxGeometry relative="1" as="geometry" />
        </mxCell>
        <mxCell id="IYN9SZwqf2Xsz6iqshpF-21" style="edgeStyle=orthogonalEdgeStyle;rounded=0;orthogonalLoop=1;jettySize=auto;html=1;entryX=0.5;entryY=0;entryDx=0;entryDy=0;fontSize=17;" edge="1" parent="1" source="IYN9SZwqf2Xsz6iqshpF-17" target="IYN9SZwqf2Xsz6iqshpF-20">
          <mxGeometry relative="1" as="geometry" />
        </mxCell>
        <mxCell id="IYN9SZwqf2Xsz6iqshpF-17" value="&lt;span style=&quot;font-size: 12px&quot;&gt;入れ替え&lt;/span&gt;" style="rhombus;whiteSpace=wrap;html=1;fontSize=17;" vertex="1" parent="1">
          <mxGeometry x="270" y="490" width="160" height="70" as="geometry" />
        </mxCell>
        <mxCell id="IYN9SZwqf2Xsz6iqshpF-23" style="edgeStyle=orthogonalEdgeStyle;rounded=0;orthogonalLoop=1;jettySize=auto;html=1;entryX=0.5;entryY=0;entryDx=0;entryDy=0;fontSize=17;" edge="1" parent="1" source="IYN9SZwqf2Xsz6iqshpF-20" target="IYN9SZwqf2Xsz6iqshpF-22">
          <mxGeometry relative="1" as="geometry" />
        </mxCell>
        <mxCell id="IYN9SZwqf2Xsz6iqshpF-20" value="&lt;font style=&quot;font-size: 13px&quot;&gt;出力&lt;/font&gt;" style="rounded=0;whiteSpace=wrap;html=1;fontSize=14;" vertex="1" parent="1">
          <mxGeometry x="290" y="640" width="120" height="60" as="geometry" />
        </mxCell>
        <mxCell id="IYN9SZwqf2Xsz6iqshpF-22" value="END" style="rounded=1;whiteSpace=wrap;html=1;fontSize=17;" vertex="1" parent="1">
          <mxGeometry x="290" y="770" width="120" height="60" as="geometry" />
        </mxCell>
        <mxCell id="IYN9SZwqf2Xsz6iqshpF-25" style="edgeStyle=orthogonalEdgeStyle;rounded=0;orthogonalLoop=1;jettySize=auto;html=1;entryX=0.5;entryY=0;entryDx=0;entryDy=0;fontSize=17;" edge="1" parent="1" source="IYN9SZwqf2Xsz6iqshpF-24" target="IYN9SZwqf2Xsz6iqshpF-11">
          <mxGeometry relative="1" as="geometry" />
        </mxCell>
        <mxCell id="IYN9SZwqf2Xsz6iqshpF-24" value="&lt;span style=&quot;font-size: 12px&quot;&gt;入れ替え&lt;/span&gt;" style="rhombus;whiteSpace=wrap;html=1;fontSize=17;" vertex="1" parent="1">
          <mxGeometry x="580" y="200" width="160" height="70" as="geometry" />
        </mxCell>
      </root>
    </mxGraphModel>
  </diagram>
</mxfile>
